name C:\Users\u0101727\Documents\MyRepositories\upper-imu-dc\Results\main_tracking\Case_46\FLX02_linearAccelerations_groundFrame.mot
datacolumns 4
datarows 70
range 2.13000000 2.82000000
endheader 
time	radius_imu_x	radius_imu_y	radius_imu_z	
          2.13000000	         -2.67143500	          9.69461197	         -0.74154992	
          2.14000000	         -2.71162821	          9.66651541	         -0.60274833	
          2.15000000	         -2.74015444	          9.62985773	         -0.46724922	
          2.16000000	         -2.75766545	          9.58568480	         -0.33461481	
          2.17000000	         -2.76506030	          9.53567242	         -0.20462575	
          2.18000000	         -2.76368192	          9.48265420	         -0.07737188	
          2.19000000	         -2.75546008	          9.43087317	          0.04676551	
          2.20000000	         -2.74287097	          9.38564311	          0.16726546	
          2.21000000	         -2.72862177	          9.35232369	          0.28374953	
          2.22000000	         -2.71512112	          9.33491463	          0.39632300	
          2.23000000	         -2.70397273	          9.33489803	          0.50584519	
          2.24000000	         -2.69570466	          9.35084387	          0.61395010	
          2.25000000	         -2.68981416	          9.37891530	          0.72276876	
          2.26000000	         -2.68508585	          9.41403840	          0.83447690	
          2.27000000	         -2.68001681	          9.45124488	          0.95076633	
          2.28000000	         -2.67323166	          9.48681989	          1.07235654	
          2.29000000	         -2.66370969	          9.51885266	          1.19850893	
          2.30000000	         -2.65171750	          9.54856634	          1.32772972	
          2.31000000	         -2.63747778	          9.57730823	          1.45720045	
          2.32000000	         -2.62063234	          9.60398444	          1.58521035	
          2.33000000	         -2.60280965	          9.63305184	          1.70846254	
          2.34000000	         -2.58360229	          9.66349057	          1.82491895	
          2.35000000	         -2.56304963	          9.69538479	          1.93284500	
          2.36000000	         -2.54076221	          9.72773754	          2.03117598	
          2.37000000	         -2.51617736	          9.75933656	          2.11915042	
          2.38000000	         -2.48851288	          9.78873592	          2.19619267	
          2.39000000	         -2.45681338	          9.81436533	          2.26186436	
          2.40000000	         -2.42005269	          9.83471035	          2.31582725	
          2.41000000	         -2.37728186	          9.84851910	          2.35782632	
          2.42000000	         -2.32779640	          9.85498630	          2.38768326	
          2.43000000	         -2.27126815	          9.85385945	          2.40527758	
          2.44000000	         -2.20779193	          9.84543570	          2.41051320	
          2.45000000	         -2.13783882	          9.83046406	          2.40328169	
          2.46000000	         -2.06214690	          9.80999884	          2.38343608	
          2.47000000	         -1.98159552	          9.78525540	          2.35078670	
          2.48000000	         -1.89712269	          9.75750883	          2.30512022	
          2.49000000	         -1.80972153	          9.72804893	          2.24623438	
          2.50000000	         -1.72050107	          9.69817186	          2.17402510	
          2.51000000	         -1.63072931	          9.66915871	          2.08862237	
          2.52000000	         -1.54179812	          9.64220715	          1.99055295	
          2.53000000	         -1.45510928	          9.61832022	          1.88086756	
          2.54000000	         -1.37191581	          9.59818098	          1.76119239	
          2.55000000	         -1.29317036	          9.58205403	          1.63370407	
          2.56000000	         -1.21943847	          9.56976004	          1.50105397	
          2.57000000	         -1.15091764	          9.56074844	          1.36625741	
          2.58000000	         -1.08755793	          9.55424160	          1.23253391	
          2.59000000	         -1.02921939	          9.54937961	          1.10307401	
          2.60000000	         -0.97577089	          9.54530826	          0.98075770	
          2.61000000	         -0.92707028	          9.54121361	          0.86790285	
          2.62000000	         -0.88286082	          9.53633944	          0.76611049	
          2.63000000	         -0.84270684	          9.53004593	          0.67620209	
          2.64000000	         -0.80602566	          9.52186949	          0.59827859	
          2.65000000	         -0.77223314	          9.51158574	          0.53183623	
          2.66000000	         -0.74087299	          9.49919718	          0.47592109	
          2.67000000	         -0.71162622	          9.48485901	          0.42929338	
          2.68000000	         -0.68418817	          9.46878176	          0.39059624	
          2.69000000	         -0.65812075	          9.45116065	          0.35853100	
          2.70000000	         -0.63279262	          9.43214603	          0.33203539	
          2.71000000	         -0.60742662	          9.41182692	          0.31043320	
          2.72000000	         -0.58119606	          9.39021210	          0.29349488	
          2.73000000	         -0.55331263	          9.36723100	          0.28135209	
          2.74000000	         -0.52308231	          9.34277208	          0.27426425	
          2.75000000	         -0.48991631	          9.31674731	          0.27232396	
          2.76000000	         -0.45329489	          9.28915410	          0.27523113	
          2.77000000	         -0.41271627	          9.26010117	          0.28221879	
          2.78000000	         -0.36767725	          9.22978928	          0.29212987	
          2.79000000	         -0.31771950	          9.19847416	          0.30358808	
          2.80000000	         -0.26254951	          9.16645080	          0.31519801	
          2.81000000	         -0.20220093	          9.13407996	          0.32573768	
          2.82000000	         -0.13717923	          9.10184112	          0.33432973	
